#!OML:ASF H:\Dans Jumps\Project 1\Capture day 1\Session 1\subject.ASF
:FULLY-SPECIFIED
:DEGREES
587
root 0.32764 17.3282 4.31972 9.47801 5.07138 -0.878834
lowerback -8.73778 0.551334 -2.35369
upperback -5.34094 0.905887 1.59454
thorax -0.701151 0.538799 3.04184
lowerneck -9.2837 2.07497 0.009769
upperneck 29.3661 2.76401 1.07006
head 10.967 1.4256 0.724363
rclavicle -2.78299e-015 -9.93923e-016
rhumerus -31.801 -30.0844 -1.97569
rradius 96.4257
rwrist 10.2518
rhand -19.2044 -21.0252
rfingers 7.12502
rthumb 7.10784 -50.8858
lclavicle -2.78299e-015 -9.93923e-016
lhumerus -20.6634 19.5428 17.226
lradius 91.7426
lwrist 19.8773
lhand -26.4223 -6.63299
lfingers 7.12502
lthumb 0.137891 23.3467
rfemur -15.592 -9.02722 17.7825
rtibia 33.03
rfoot -22.7918 -10.298
rtoes 6.445
lfemur -16.5465 5.87705 -16.5274
ltibia 31.1635
lfoot -19.1202 9.56912
ltoes 2.29465
588
root 0.325703 17.3221 4.3468 9.32723 5.55154 -1.02896
lowerback -8.95441 0.326685 -2.4883
upperback -5.15883 0.619602 1.86421
thorax -0.37904 0.394595 3.37952
lowerneck -9.27836 2.31345 0.276764
upperneck 28.9848 3.12712 0.789439
head 10.8296 1.58866 0.615037
rclavicle 4.47266e-015 -1.15295e-014
rhumerus -32.0575 -31.166 -1.77589
rradius 95.4763
rwrist 10.235
rhand -19.9157 -21.2031
rfingers 7.12502
rthumb 6.42118 -51.0858
lclavicle 4.47266e-015 -1.15295e-014
lhumerus -22.253 20.5034 17.569
lradius 91.5352
lwrist 19.7864
lhand -25.8972 -6.8542
lfingers 7.12502
lthumb 0.645077 23.1246
rfemur -15.2401 -9.39931 17.9677
rtibia 32.9954
rfoot -22.8435 -10.3861
rtoes 6.29065
lfemur -16.4258 5.51391 -16.2813
ltibia 31.2888
lfoot -19.2279 9.55808
ltoes 2.15748
589
root 0.322633 17.3172 4.37313 9.18242 5.96463 -1.12341
lowerback -9.10469 0.077278 -2.71945
upperback -5.02082 0.306225 2.13465
thorax -0.134103 0.239497 3.76765
lowerneck -9.42644 2.54944 0.635892
upperneck 28.7907 3.48966 0.427582
head 10.8005 1.7504 0.466355
rclavicle -4.74598e-015 -5.96354e-015
rhumerus -32.0476 -32.251 -1.83161
rradius 94.4052
rwrist 10.26
rhand -20.4884 -21.3075
rfingers 7.12502
rthumb 5.86831 -51.2062
lclavicle -4.74598e-015 -5.96354e-015
lhumerus -24.2095 20.9803 17.6025
lradius 91.5793
lwrist 20.2091
lhand -26.6546 -7.04111
lfingers 7.12502
lthumb -0.0864673 22.9386
rfemur -14.9107 -9.68686 18.0889
rtibia 32.9629
rfoot -22.913 -10.4483
rtoes 6.303
lfemur -16.3145 5.18574 -16.1033
ltibia 31.4222
lfoot -19.3246 9.563
ltoes 2.1664
590
root 0.316227 17.3116 4.39855 9.00983 6.34226 -1.27268
lowerback -9.26925 -0.175805 -2.94607
upperback -4.83503 -0.0127683 2.43044
thorax 0.174095 0.0783189 4.1781
lowerneck -9.53881 2.79829 1.07249
upperneck 28.501 3.87983 -0.0383083
head 10.7359 1.92089 0.269586
rclavicle -3.47873e-015 -1.86858e-014
rhumerus -31.8295 -33.368 -2.05593
rradius 93.2421
rwrist 10.2626
rhand -21.2384 -21.5232
rfingers 7.12502
rthumb 5.14419 -51.4408
lclavicle -3.47873e-015 -1.86858e-014
lhumerus -26.2146 21.711 17.5709
lradius 91.5995
lwrist 20.6147
lhand -27.0678 -7.27839
lfingers 7.12502
lthumb -0.485586 22.7008
rfemur -14.5749 -9.81266 18.2884
rtibia 32.9378
rfoot -22.98 -10.6227
rtoes 6.37047
lfemur -16.1955 4.88383 -15.8514
ltibia 31.5641
lfoot -19.3904 9.6162
ltoes 1.9507
591
root 0.313942 17.3026 4.4279 8.73418 6.73755 -1.44998
lowerback -9.39058 -0.440939 -3.12759
upperback -4.62522 -0.353062 2.73477
thorax 0.491553 -0.0965485 4.56823
lowerneck -9.50722 3.06967 1.46606
upperneck 28.1302 4.29091 -0.441656
head 10.6144 2.10508 0.102702
rclavicle -1.98785e-016 -2.38542e-015
rhumerus -31.4509 -34.4792 -2.43134
rradius 91.9532
rwrist 10.2951
rhand -21.9811 -21.7497
rfingers 7.12502
rthumb 4.42704 -51.6835
lclavicle -1.98785e-016 -2.38542e-015
lhumerus -28.2358 22.2342 17.5087
lradius 91.593
lwrist 21.005
lhand -26.9807 -7.31878
lfingers 7.12502
lthumb -0.401475 22.6606
rfemur -14.0995 -10.0795 18.466
rtibia 32.9145
rfoot -23.0627 -10.6763
rtoes 6.27669
lfemur -15.935 4.6058 -15.5748
ltibia 31.7124
lfoot -19.5436 9.59972
ltoes 1.89504
592
root 0.308896 17.2952 4.45234 8.49685 7.13215 -1.62751
lowerback -9.5264 -0.730759 -3.34937
upperback -4.40439 -0.723669 3.05735
thorax 0.837994 -0.288515 4.99596
lowerneck -9.57472 3.3805 1.77939
upperneck 27.8248 4.74584 -0.748296
head 10.5371 2.31135 -0.00728404
rclavicle -8.10048e-015 -3.29983e-014
rhumerus -30.8888 -35.6199 -2.91226
rradius 90.6046
rwrist 10.2468
rhand -22.5783 -21.9621
rfingers 7.12502
rthumb 3.85031 -51.9071
lclavicle -8.10048e-015 -3.29983e-014
lhumerus -30.3359 22.6969 17.4158
lradius 91.4916
lwrist 21.2392
lhand -27.461 -7.65121
lfingers 7.12502
lthumb -0.865369 22.3268
rfemur -13.6959 -10.2729 18.6675
rtibia 32.9076
rfoot -23.1531 -10.763
rtoes 6.42497
lfemur -15.7577 4.36072 -15.2975
ltibia 31.8654
lfoot -19.6301 9.59302
ltoes 1.68809
593
root 0.305452 17.2889 4.47493 8.26015 7.52602 -1.76912
lowerback -9.61289 -1.01176 -3.58998
upperback -4.21229 -1.08204 3.35591
thorax 1.13302 -0.474455 5.40937
lowerneck -9.57327 3.6319 2.09855
upperneck 27.4862 5.1279 -1.10971
head 10.438 2.47939 -0.147388
rclavicle -1.38155e-014 2.34566e-014
rhumerus -30.2445 -36.6857 -3.49716
rradius 89.226
rwrist 10.1387
rhand -23.0939 -22.2058
rfingers 7.12502
rthumb 3.35237 -52.1592
lclavicle -1.38155e-014 2.34566e-014
lhumerus -32.3532 23.283 17.318
lradius 91.2093
lwrist 21.1541
lhand -27.6192 -8.10323
lfingers 7.12502
lthumb -1.0181 21.8741
rfemur -13.2946 -10.5193 18.8168
rtibia 32.9028
rfoot -23.2185 -10.8278
rtoes 6.43377
lfemur -15.5813 4.1117 -15.0692
ltibia 32.0232
lfoot -19.7213 9.55272
ltoes 1.52161
594
root 0.302436 17.2819 4.49989 8.04829 7.88031 -1.83683
lowerback -9.77555 -1.28792 -3.93114
upperback -4.00314 -1.42372 3.6483
thorax 1.49409 -0.655297 5.87409
lowerneck -9.79386 3.95683 2.52515
upperneck 27.3071 5.60415 -1.51549
head 10.4522 2.69361 -0.30248
rclavicle -4.82053e-015 -2.38542e-014
rhumerus -29.4798 -37.7677 -4.13278
rradius 87.7703
rwrist 9.95288
rhand -23.6135 -22.4065
rfingers 7.12502
rthumb 2.85066 -52.3672
lclavicle -4.82053e-015 -2.38542e-014
lhumerus -34.4858 23.5197 17.1498
lradius 90.9167
lwrist 21.0321
lhand -27.9822 -8.69375
lfingers 7.12502
lthumb -1.3687 21.2816
rfemur -12.914 -10.7585 18.8799
rtibia 32.9033
rfoot -23.2833 -10.8778
rtoes 6.3956
lfemur -15.4131 3.86191 -14.9293
ltibia 32.1835
lfoot -19.8124 9.57031
ltoes 1.41823
595
root 0.296769 17.2748 4.52439 7.8461 8.23509 -1.9346
lowerback -9.88501 -1.55872 -4.29426
upperback -3.83918 -1.75766 3.96233
thorax 1.78672 -0.831536 6.37566
lowerneck -9.61121 4.13402 2.63366
upperneck 26.883 5.8997 -1.79841
head 10.281 2.81295 -0.393155
rclavicle 2.75814e-014 -1.19271e-014
rhumerus -28.6472 -38.8756 -4.83507
rradius 86.3436
rwrist 9.73193
rhand -24.0728 -22.8201
rfingers 7.12502
rthumb 2.40706 -52.7863
lclavicle 2.75814e-014 -1.19271e-014
lhumerus -36.4545 23.7626 17.0909
lradius 90.3686
lwrist 20.4674
lhand -28.5077 -9.1895
lfingers 7.12502
lthumb -1.87623 20.782
rfemur -12.5456 -10.961 18.9955
rtibia 32.8998
rfoot -23.3423 -11.0081
rtoes 6.18844
lfemur -15.2651 3.63387 -14.7459
ltibia 32.3467
lfoot -19.8799 9.5701
ltoes 1.05046
596
root 0.295556 17.2659 4.55248 7.56291 8.47361 -2.14488
lowerback -10.0401 -1.7592 -4.48604
upperback -3.60473 -2.01422 4.28317
thorax 2.1699 -0.976589 6.79372
lowerneck -9.81791 4.38656 2.9447
upperneck 26.7256 6.30181 -2.23018
head 10.3018 2.97854 -0.545044
rclavicle -8.15017e-015 1.66979e-014
rhumerus -27.8928 -39.6975 -5.4981
rradius 84.9797
rwrist 9.10689
rhand -24.7184 -23.3468
rfingers 7.12502
rthumb 1.78359 -53.3191
lclavicle -8.15017e-015 1.66979e-014
lhumerus -38.3499 23.8204 16.9933
lradius 89.6586
lwrist 20.0421
lhand -29.328 -9.96687
lfingers 7.12502
lthumb -2.66852 19.9962
rfemur -12.1195 -11.1244 19.1871
rtibia 32.9088
rfoot -23.4111 -11.0627
rtoes 5.90194
lfemur -15.0112 3.47185 -14.4647
ltibia 32.5174
lfoot -19.991 9.62766
ltoes 0.885825
